<?xml version="1.0" encoding="UTF-8"?>
<svg width="24px" height="24px" viewBox="0 0 24 24" version="1.1" xmlns="http://www.w3.org/2000/svg" xmlns:xlink="http://www.w3.org/1999/xlink">
    <!-- Generator: Sketch 56.3 (81716) - https://sketch.com -->
    <title>tms_password</title>
    <desc>Created with Sketch.</desc>
    <g id="ðŸ¦-TMS-admin" stroke="none" stroke-width="1" fill="none" fill-rule="evenodd">
        <g id="default-picture" transform="translate(-756.000000, -472.000000)" fill="#2685C7" fill-rule="nonzero">
            <g id="Group" transform="translate(756.000000, 470.000000)">
                <g id="key" transform="translate(0.000000, 2.000000)">
                    <path d="M15.7037109,2 C12.222242,2 9.40742175,4.81482027 9.40742175,8.29628912 C9.40742175,9.0370313 9.55557019,9.77777347 9.77777347,10.5185156 L2,18.2963279 L2,22.0000387 L5.70371088,22.0000387 L5.70371088,19.7778122 L7.9259374,19.7778122 L7.9259374,17.5555857 L10.1481639,17.5555857 L13.4814844,14.2222653 C14.1481717,14.4444685 14.8889138,14.592617 15.7037109,14.592617 C19.1852185,14.592617 22,11.7777967 22,8.29632786 C22,4.814859 19.1852185,2 15.7037109,2 Z M17.5555857,8.66667958 C16.2963046,8.66667958 15.3333592,7.70373412 15.3333592,6.44445305 C15.3333592,5.18517199 16.2963046,4.22222653 17.5555857,4.22222653 C18.8148667,4.22222653 19.7778122,5.18517199 19.7778122,6.44445305 C19.7778122,7.70373412 18.8148667,8.66667958 17.5555857,8.66667958 Z" id="Shape"></path>
                </g>
            </g>
        </g>
    </g>
</svg>