<?xml version="1.0" encoding="utf-8"?>
<!-- Generator: Adobe Illustrator 21.0.2, SVG Export Plug-In . SVG Version: 6.00 Build 0)  -->
<svg version="1.1" id="Layer_1" xmlns="http://www.w3.org/2000/svg" xmlns:xlink="http://www.w3.org/1999/xlink" x="0px" y="0px"
	 viewBox="0 0 85.488 28" enable-background="new 0 0 85.488 28" xml:space="preserve">
<g>
	<g>
		<g>
			<path fill="#ffffff" d="M0,22.98V7.487h2.122V22.98H0z"/>
			<path fill="#ffffff" d="M6.365,25.61c1.326,0.383,2.35,0.56,3.072,0.531c1.046,0,1.904-0.292,2.575-0.873c0.67-0.582,1.006-1.345,1.006-2.288
				v-5.172c-0.015-0.766-0.177-1.44-0.486-2.022c-0.309-0.582-0.704-1.024-1.182-1.326c-0.479-0.302-1.006-0.453-1.58-0.453
				c-1.002,0-1.853,0.309-2.553,0.928c-0.7,0.619-1.057,1.562-1.072,2.829c0.029,0.089,0.044,0.199,0.044,0.331
				c0.044,0.855,0.379,1.61,1.005,2.265c0.626,0.656,1.455,0.984,2.487,0.984c0.722,0,1.576-0.287,2.564-0.862v2.033
				c-0.958,0.458-1.872,0.685-2.741,0.685c-1.489-0.059-2.737-0.611-3.746-1.658c-1.01-1.046-1.514-2.306-1.514-3.779
				c0-1.901,0.582-3.319,1.746-4.255c1.164-0.936,2.409-1.389,3.735-1.359c1.444,0.015,2.656,0.49,3.636,1.426
				c0.98,0.936,1.514,2.111,1.603,3.525v5.437c0,0.56-0.125,1.249-0.376,2.067c-0.251,0.818-0.781,1.583-1.591,2.299
				c-0.811,0.714-1.975,1.079-3.492,1.094c-1.164,0.03-2.372-0.176-3.625-0.619L6.365,25.61z"/>
			<path fill="#ffffff" d="M16.819,22.98v-6.476c0-0.781,0.199-1.503,0.597-2.166c0.398-0.663,0.954-1.197,1.669-1.602
				c0.714-0.405,1.484-0.615,2.309-0.63c0.589,0,1.241,0.152,1.956,0.453c0.715,0.302,1.322,0.803,1.824,1.503
				c0.5,0.7,0.751,1.573,0.751,2.619v6.299H23.98v-6.255c0-0.721-0.243-1.359-0.729-1.911c-0.486-0.552-1.105-0.836-1.857-0.851
				c-0.737,0-1.352,0.254-1.846,0.762c-0.494,0.509-0.74,1.116-0.74,1.823v6.432H16.819z"/>
			<path fill="#ffffff" d="M28.798,9.94c0.014-0.324,0.133-0.593,0.354-0.807c0.221-0.213,0.493-0.321,0.818-0.321c0.339,0,0.615,0.107,0.829,0.321
				c0.214,0.214,0.321,0.497,0.321,0.851c0,0.354-0.107,0.638-0.321,0.851c-0.214,0.214-0.475,0.321-0.784,0.321
				c-0.324,0-0.612-0.114-0.862-0.342C28.901,10.585,28.783,10.294,28.798,9.94z M28.975,22.98V12.371h1.945V22.98H28.975z"/>
			<path fill="#ffffff" d="M34.301,19.665v-9.99h1.923v2.696h3.802v1.856h-3.802v5.813c0,0.28,0.118,0.531,0.354,0.751
				c0.236,0.221,0.582,0.332,1.039,0.332h2.409v1.857h-2.453c-1.12,0-1.945-0.317-2.475-0.95
				C34.567,21.397,34.301,20.608,34.301,19.665z"/>
			<path fill="#ffffff" d="M43.717,17.919l5.282-2.917c-0.662-0.663-1.488-0.994-2.475-0.994c-1.076,0-1.931,0.383-2.564,1.149
				c-0.634,0.766-0.914,1.665-0.84,2.697c0.044,0.958,0.376,1.782,0.994,2.475c0.619,0.693,1.451,1.031,2.498,1.016
				c1.075-0.014,1.882-0.302,2.42-0.862c0.538-0.56,0.909-1.384,1.116-2.476l1.944,0.266c-0.029,0.737-0.258,1.484-0.685,2.243
				c-0.428,0.759-1.065,1.399-1.912,1.923c-0.847,0.523-1.854,0.792-3.017,0.807c-0.943,0-1.831-0.244-2.663-0.73
				c-0.833-0.486-1.496-1.141-1.989-1.966c-0.494-0.826-0.741-1.702-0.741-2.631c-0.044-1.856,0.501-3.282,1.636-4.276
				c1.134-0.995,2.401-1.492,3.801-1.492c1.208,0,2.228,0.276,3.062,0.829c0.832,0.552,1.543,1.396,2.132,2.531l-7.161,3.979
				L43.717,17.919z"/>
			<path fill="#ffffff" d="M53.773,22.98V9.432c0-0.678,0.173-1.201,0.519-1.569c0.346-0.368,0.763-0.552,1.249-0.552
				c0.81,0,1.415,0.406,1.813,1.216l5.614,11.515V7.487h2.078v14.234c0,0.457-0.152,0.803-0.453,1.039
				c-0.302,0.235-0.674,0.353-1.117,0.353c-0.413,0-0.807-0.107-1.183-0.32c-0.375-0.213-0.63-0.497-0.762-0.851l-5.68-11.78V22.98
				H53.773z"/>
			<path fill="#ffffff" d="M69.531,17.919l5.282-2.917c-0.663-0.663-1.488-0.994-2.475-0.994c-1.076,0-1.931,0.383-2.564,1.149
				c-0.634,0.766-0.914,1.665-0.839,2.697c0.044,0.958,0.375,1.782,0.994,2.475c0.619,0.693,1.451,1.031,2.498,1.016
				c1.076-0.014,1.882-0.302,2.42-0.862c0.538-0.56,0.91-1.384,1.116-2.476l1.945,0.266c-0.029,0.737-0.258,1.484-0.685,2.243
				c-0.428,0.759-1.065,1.399-1.912,1.923c-0.847,0.523-1.853,0.792-3.017,0.807c-0.943,0-1.831-0.244-2.663-0.73
				c-0.833-0.486-1.496-1.141-1.989-1.966c-0.493-0.826-0.74-1.702-0.74-2.631c-0.044-1.856,0.501-3.282,1.636-4.276
				c1.134-0.995,2.401-1.492,3.801-1.492c1.207,0,2.229,0.276,3.061,0.829c0.832,0.552,1.543,1.396,2.133,2.531l-7.161,3.979
				L69.531,17.919z"/>
			<path fill="#ffffff" d="M79.764,19.665v-9.99h1.923v2.696h3.801v1.856h-3.801v5.813c0,0.28,0.118,0.531,0.354,0.751
				c0.236,0.221,0.582,0.332,1.039,0.332h2.409v1.857h-2.453c-1.12,0-1.945-0.317-2.475-0.95
				C80.029,21.397,79.764,20.608,79.764,19.665z"/>
		</g>
	</g>
	<path fill="#ffffff" d="M28.615,11.885c0,0-3.79-2.429-2.649-5.151c1.141-2.723,3.422-3.68,2.833-6.734c0,0,10.082,6.035,2.686,11.775
		c0,0,2.907-4.857-1.472-7.433C29.829,7.543,25.671,7.69,28.615,11.885z"/>
</g>
</svg>
