<?xml version="1.0" encoding="UTF-8"?>
<svg width="62px" height="62px" viewBox="0 0 62 62" version="1.1" xmlns="http://www.w3.org/2000/svg" xmlns:xlink="http://www.w3.org/1999/xlink">
    <!-- Generator: Sketch 56.2 (81672) - https://sketch.com -->
    <title>kb_base</title>
    <desc>Created with Sketch.</desc>
    <g id="ðŸ¥-SONiC-and-CCTV" stroke="none" stroke-width="1" fill="none" fill-rule="evenodd">
        <g id="sonic_iterate4" transform="translate(-266.000000, -2404.000000)">
            <g id="knowledge" transform="translate(266.000000, 2404.000000)">
                <path d="M2,58.1541028 L2,49.0281443 C18,49.6095698 26.6666667,52.356545 28,57.26907 C23.7750454,57.8590919 15.1083788,58.1541028 2,58.1541028 Z" id="Path-5" fill="#ECECEC"></path>
                <path d="M34,58.1541028 L34,49.0281443 C50,49.6095698 58.6666667,52.356545 60,57.26907 C55.7750454,57.8590919 47.1083788,58.1541028 34,58.1541028 Z" id="Path-5" fill="#ECECEC" transform="translate(47.000000, 53.591124) scale(-1, 1) translate(-47.000000, -53.591124) "></path>
                <g id="116338" transform="translate(9.000000, 2.000000)" fill-rule="nonzero">
                    <g id="Group" fill="#F45259">
                        <rect id="Rectangle" x="20" y="0" width="2" height="6" rx="1"></rect>
                        <rect id="Rectangle" x="37" y="20" width="6" height="2" rx="1"></rect>
                        <rect id="Rectangle" x="0" y="20" width="6" height="2" rx="1"></rect>
                        <rect id="Rectangle" transform="translate(34.581475, 7.918525) rotate(-45.000000) translate(-34.581475, -7.918525) " x="31.5814755" y="6.91852455" width="6" height="2" rx="1"></rect>
                        <rect id="Rectangle" transform="translate(8.418525, 7.918525) rotate(-135.000000) translate(-8.418525, -7.918525) " x="5.41852455" y="6.91852455" width="6" height="2" rx="1"></rect>
                    </g>
                    <path d="M27.3092549,38 L16.694856,38 L16.6959008,37.4262295 C16.6959008,34.648642 15.6758985,31.9517984 13.8112068,29.9332028 C11.6915145,27.5754832 10.6715122,24.4587717 11.0938569,21.2613164 C11.7712022,16.4651333 16.0424618,12 21.9552876,12 C27.9796762,12 32.9920312,16.796183 33,22.7793002 C33,25.4761439 31.9799977,28.0841693 30.0276496,30.1027649 C28.2426455,31.9517984 27.3102997,34.5678982 27.3102997,37.4262295 L27.3092549,38 Z M27.3056132,40 L27.3023309,41.8025447 C27.3023309,43.5708344 25.8599839,45 24.0749799,45 L19.9152831,45 C18.130279,45 16.687932,43.5708344 16.687932,41.8025447 L16.6912143,40 L27.3056132,40 Z" id="Combined-Shape" fill="#6AB7E7"></path>
                </g>
                <g id="Group-2" transform="translate(1.987536, 48.000000)">
                    <path d="M58.0124643,2 L58.0124643,0 C44.9660893,0 31.1023393,3.15375 31.0129643,9 L27.0119643,9 C26.9225893,3.15375 13.0588393,0 0.0124643386,0 L0.0124643386,2 C14.6623393,2 24.8920893,5.67675 25.0070893,9 L0.0124643386,9 L0.0124643386,11 L58.0124643,11 L58.0124643,9 L33.0178393,9 C33.1328393,5.67675 43.3625893,2 58.0124643,2 Z" id="Path" fill="#FF9D38" fill-rule="nonzero"></path>
                    <path d="M32,10.1541028 C35.1337503,7.05136759 43.8045717,5.5 58.0124643,5.5" id="Path-4" stroke="#FF9D38" stroke-width="2"></path>
                    <path d="M-4.54747351e-13,10.1541028 C3.13375027,7.05136759 11.8045717,5.5 26.0124643,5.5" id="Path-4" stroke="#FF9D38" stroke-width="2" transform="translate(13.006232, 7.827051) scale(-1, 1) translate(-13.006232, -7.827051) "></path>
                </g>
            </g>
        </g>
    </g>
</svg>