<?xml version="1.0" encoding="UTF-8"?>
<svg width="62px" height="62px" viewBox="0 0 62 62" version="1.1" xmlns="http://www.w3.org/2000/svg" xmlns:xlink="http://www.w3.org/1999/xlink">
    <!-- Generator: Sketch 56.2 (81672) - https://sketch.com -->
    <title>kb_forum</title>
    <desc>Created with Sketch.</desc>
    <g id="ðŸ¥-SONiC-and-CCTV" stroke="none" stroke-width="1" fill="none" fill-rule="evenodd">
        <g id="sonic_iterate4" transform="translate(-680.000000, -2404.000000)" fill-rule="nonzero">
            <g id="forum" transform="translate(680.000000, 2404.000000)">
                <g id="Group-23" transform="translate(1.000000, 2.000000)">
                    <path d="M4.62438416,56.4782174 C4.79220455,56.3919565 5.02170253,56.2895217 5.28132211,56.1736087 C6.9150608,55.443087 8.94898659,54.5346522 8.94898659,52.8741304 L8.94898659,49.3091304 L8.20168382,48.9263478 C7.07284066,48.3481304 4.0248207,46.3627826 3.48406611,44.1456087 L3.35353913,43.6118696 L2.86442158,43.314 C1.97798566,42.7762174 1.81159963,42.499913 1.77717493,42.5416957 L1.77717493,39.656 C1.78291238,39.6506087 1.79008419,39.6425217 1.80012473,39.6290435 C2.70951045,38.6060435 3.21153726,37.3593043 3.21153726,36.1233478 L3.21153726,34.7741739 C3.21870907,34.4978696 3.49697537,28 11.8177113,28 C19.9304646,28 20.3980667,34.0867826 20.4238853,34.7391304 L20.4238853,36.1233478 C20.4238853,37.3431304 20.9115684,38.571 21.8582476,39.664087 L21.8596819,42.5228261 C21.812348,42.7142174 21.2314312,43.2102174 20.5271593,43.4123913 L19.8142813,43.6186087 L19.5847833,44.2871304 C19.0985345,45.7063913 18.1102588,47.1256522 17.1850951,48.3656522 C17.0373558,48.5031304 16.4449641,48.885913 16.1279701,49.0921304 C15.5198004,49.4856957 15.2429685,49.669 15.0435921,49.8806087 L14.6864359,50.2647391 L14.6864359,53.6086957 C14.6864359,55.3945652 16.5812286,55.767913 17.4920486,55.9471739 C17.7832242,56.0037826 18.1102588,56.0684783 18.2952915,56.139913 L23,59 L0,59 L4.62438416,56.4782174 Z" id="Path-Copy-2" fill="#AFB0B0"></path>
                    <path d="M50.5384615,17.8945589 C55.2041538,17.8945589 59,13.8808094 59,8.94727947 C59,4.01374957 55.2041538,0 50.5384615,0 L23.4615385,0 C18.7958462,0 15,4.01374957 15,8.94727947 L15,22.5517118 C15,23.1039966 15.4477153,23.5517118 16,23.5517118 C16.2686353,23.5517118 16.5259738,23.4436291 16.7140453,23.2518113 L21.9666667,17.8945589 L50.5384615,17.8945589 Z" id="Path" fill="#6AB7E7"></path>
                    <path d="M54.7692308,39.2785278 C57.1020769,39.2785278 59,36.524454 59,33.1392639 C59,29.7540738 57.1020769,27 54.7692308,27 L41.2307692,27 C38.8979231,27 37,29.7540738 37,33.1392639 L37,40.468281 C37,41.0205657 37.4477153,41.468281 38,41.468281 C38.2766849,41.468281 38.541004,41.3536449 38.7300799,41.1516427 L40.4833333,39.2785278 L54.7692308,39.2785278 Z" id="Path-Copy-4" fill="#FF9D38" transform="translate(48.000000, 35.000000) scale(-1, 1) translate(-48.000000, -35.000000) "></path>
                    <path d="M55.9230769,53.6740799 C57.6196923,53.6740799 59,51.9527837 59,49.8370399 C59,47.7212961 57.6196923,46 55.9230769,46 L46.0769231,46 C44.3803077,46 43,47.7212961 43,49.8370399 L43,54.8369312 C43,55.389216 43.4477153,55.8369312 44,55.8369312 C44.2705837,55.8369312 44.5296179,55.7272797 44.7179654,55.53301 L46.5202274,53.6740799 L55.9230769,53.6740799 Z" id="Path-Copy-5" fill="#F45259" transform="translate(51.000000, 51.652497) scale(-1, 1) translate(-51.000000, -51.652497) "></path>
                </g>
            </g>
        </g>
    </g>
</svg>