<?xml version="1.0" encoding="UTF-8"?>
<svg width="62px" height="62px" viewBox="0 0 62 62" version="1.1" xmlns="http://www.w3.org/2000/svg" xmlns:xlink="http://www.w3.org/1999/xlink">
    <!-- Generator: Sketch 56.2 (81672) - https://sketch.com -->
    <title>kb_sonic</title>
    <desc>Created with Sketch.</desc>
    <g id="ðŸ¥-SONiC-and-CCTV" stroke="none" stroke-width="1" fill="none" fill-rule="evenodd">
        <g id="sonic_iterate4" transform="translate(-1231.000000, -2404.000000)">
            <g id="sonic" transform="translate(1231.000000, 2404.000000)">
                <g id="Group-17" transform="translate(29.500000, 19.000000) rotate(-30.000000) translate(-29.500000, -19.000000) translate(5.000000, 14.000000)" stroke="#6AB7E7" stroke-linecap="round" stroke-width="3">
                    <path d="M0,5 L48,5" id="Line-4"></path>
                    <polyline id="Line-5" stroke-linejoin="round" points="44 10 49 5 44 0"></polyline>
                </g>
                <path d="M10,41 L16,41 C18.209139,41 20,42.790861 20,45 L20,59 L6,59 L6,45 C6,42.790861 7.790861,41 10,41 Z" id="Rectangle" fill="#AFB0B0"></path>
                <path d="M28,33 L34,33 C36.209139,33 38,34.790861 38,37 L38,59 L24,59 L24,37 C24,34.790861 25.790861,33 28,33 Z" id="Rectangle-Copy-36" fill="#F45259"></path>
                <path d="M46,25 L52,25 C54.209139,25 56,26.790861 56,29 L56,59 L42,59 L42,29 C42,26.790861 43.790861,25 46,25 Z" id="Rectangle-Copy-37" fill="#FF9D38"></path>
                <rect id="Rectangle" fill="#20304B" x="4" y="57" width="54" height="2" rx="1"></rect>
            </g>
        </g>
    </g>
</svg>