<?xml version="1.0" encoding="UTF-8"?>
<svg width="62px" height="62px" viewBox="0 0 62 62" version="1.1" xmlns="http://www.w3.org/2000/svg" xmlns:xlink="http://www.w3.org/1999/xlink">
    <!-- Generator: Sketch 56.2 (81672) - https://sketch.com -->
    <title>kb_video</title>
    <desc>Created with Sketch.</desc>
    <g id="ðŸ¥-SONiC-and-CCTV" stroke="none" stroke-width="1" fill="none" fill-rule="evenodd">
        <g id="sonic_iterate4" transform="translate(-955.000000, -2404.000000)">
            <g id="video" transform="translate(955.000000, 2404.000000)">
                <rect id="Rectangle" fill="#ECECEC" x="0" y="6" width="62" height="50" rx="4"></rect>
                <path d="M50,6 L58,6 C60.209139,6 62,7.790861 62,10 L62,17 L50,17 L50,6 Z" id="Rectangle" fill="#AFB0B0"></path>
                <rect id="Rectangle-Copy-22" fill="#AFB0B0" x="50" y="19" width="12" height="11"></rect>
                <rect id="Rectangle-Copy-23" fill="#AFB0B0" x="50" y="32" width="12" height="11"></rect>
                <path d="M50,45 L62,45 L62,52 C62,54.209139 60.209139,56 58,56 L50,56 L50,49.0192277 L50,45 Z" id="Rectangle-Copy-24" fill="#AFB0B0"></path>
                <path d="M4,6 L12,6 L12,17 L0,17 L0,10 C-2.705415e-16,7.790861 1.790861,6 4,6 Z" id="Rectangle" fill="#AFB0B0"></path>
                <rect id="Rectangle-Copy-22" fill="#AFB0B0" x="0" y="19" width="12" height="11"></rect>
                <rect id="Rectangle-Copy-23" fill="#AFB0B0" x="0" y="32" width="12" height="11"></rect>
                <path d="M0,45 L12,45 L12,56 L4,56 C1.790861,56 2.705415e-16,54.209139 0,52 L0,49.0192277 L0,45 Z" id="Rectangle-Copy-24" fill="#AFB0B0"></path>
                <path d="M33.3160245,28.1520346 L39.8822377,37.4219827 C40.2014679,37.8726605 40.0949085,38.4967943 39.6442306,38.8160245 C39.4752536,38.9357165 39.2732867,39 39.0662132,39 L25.9337868,39 C25.381502,39 24.9337868,38.5522847 24.9337868,38 C24.9337868,37.7929265 24.9980702,37.5909597 25.1177623,37.4219827 L31.6839755,28.1520346 C32.0032057,27.7013567 32.6273395,27.5947973 33.0780173,27.9140274 C33.170231,27.9793454 33.2507065,28.0598209 33.3160245,28.1520346 Z" id="Triangle" fill="#F45259" transform="translate(32.500000, 33.000000) rotate(-270.000000) translate(-32.500000, -33.000000) "></path>
            </g>
        </g>
    </g>
</svg>