<?xml version="1.0" encoding="UTF-8"?>
<svg width="62px" height="62px" viewBox="0 0 62 62" version="1.1" xmlns="http://www.w3.org/2000/svg" xmlns:xlink="http://www.w3.org/1999/xlink">
    <!-- Generator: Sketch 56.2 (81672) - https://sketch.com -->
    <title>kb_web</title>
    <desc>Created with Sketch.</desc>
    <g id="ðŸ¥-SONiC-and-CCTV" stroke="none" stroke-width="1" fill="none" fill-rule="evenodd">
        <g id="sonic_iterate4" transform="translate(-1093.000000, -2404.000000)">
            <g id="web" transform="translate(1093.000000, 2404.000000)">
                <g id="Group-22" transform="translate(6.000000, 3.000000)">
                    <g id="Group-4">
                        <path d="M3.33333333,0 L46.6666667,0 C48.5076158,0 50,1.65654643 50,3.7 L50,33.3 C50,35.3434536 48.5076158,37 46.6666667,37 L19.227277,37 L12.1918593,37 L5.46259102,37 L3.33333333,37 C1.49238417,37 0,35.3434536 0,33.3 L0,3.7 C0,1.65654643 1.49238417,0 3.33333333,0 Z" id="Path" fill="#ECECEC" fill-rule="nonzero"></path>
                        <path d="M26.6199824,18.695476 L30.4502828,23.5757815 C30.7912636,24.0102358 30.7154883,24.6388501 30.281034,24.9798309 C30.1049187,25.1180547 29.887514,25.1931818 29.6636337,25.1931818 L22.003033,25.1931818 C21.4507483,25.1931818 21.003033,24.7454666 21.003033,24.1931818 C21.003033,23.9693015 21.0781601,23.7518967 21.2163839,23.5757815 L25.0466842,18.695476 C25.387665,18.2610217 26.0162794,18.1852465 26.4507337,18.5262273 C26.5137225,18.575664 26.5705457,18.6324872 26.6199824,18.695476 Z" id="Triangle-Copy-2" fill="#60718D" transform="translate(25.833333, 21.443182) rotate(-270.000000) translate(-25.833333, -21.443182) "></path>
                        <path d="M37,0 L47,0 C48.6568542,-3.04359188e-16 50,1.34314575 50,3 L50,8 L37,8 L37,0 Z" id="Rectangle" fill="#6AB7E7"></path>
                        <path d="M4,0 L34,0 L34,8 L0,8 L0,4 C-2.705415e-16,1.790861 1.790861,4.05812251e-16 4,0 Z" id="Rectangle-Copy-6" fill="#6AB7E7"></path>
                        <path d="M8,1 C8.55228475,1 9,1.44771525 9,2 L9,6 C9,6.55228475 8.55228475,7 8,7 C7.44771525,7 7,6.55228475 7,6 L7,2 C7,1.44771525 7.44771525,1 8,1 Z" id="Rectangle-Copy-47" fill="#FFFFFF" transform="translate(8.000000, 4.000000) rotate(-90.000000) translate(-8.000000, -4.000000) "></path>
                        <path d="M18,1 C18.5522847,1 19,1.44771525 19,2 L19,6 C19,6.55228475 18.5522847,7 18,7 C17.4477153,7 17,6.55228475 17,6 L17,2 C17,1.44771525 17.4477153,1 18,1 Z" id="Rectangle-Copy-48" fill="#FFFFFF" transform="translate(18.000000, 4.000000) rotate(-90.000000) translate(-18.000000, -4.000000) "></path>
                        <path d="M28,1 C28.5522847,1 29,1.44771525 29,2 L29,6 C29,6.55228475 28.5522847,7 28,7 C27.4477153,7 27,6.55228475 27,6 L27,2 C27,1.44771525 27.4477153,1 28,1 Z" id="Rectangle-Copy-49" fill="#FFFFFF" transform="translate(28.000000, 4.000000) rotate(-90.000000) translate(-28.000000, -4.000000) "></path>
                    </g>
                </g>
                <path d="M5.21696289,44.129 C5.33370751,44.065 5.49335828,43.989 5.67396321,43.903 C6.81047708,43.361 8.22538198,42.687 8.22538198,41.455 L8.22538198,38.81 L7.70551918,38.526 C6.92023698,38.097 4.79987527,36.624 4.42369816,34.979 L4.33289679,34.583 L3.9926411,34.362 C3.37599002,33.963 3.26024322,33.758 3.2362956,33.789 L3.2362956,31.648 C3.24028687,31.644 3.24527596,31.638 3.25226068,31.628 C3.88487683,30.869 4.23411288,29.944 4.23411288,29.027 L4.23411288,28.026 C4.23910196,27.821 4.43267852,23 10.2210165,23 C15.864671,23 16.1899595,27.516 16.2079202,28 L16.2079202,29.027 C16.2079202,29.932 16.547178,30.843 17.2057374,31.654 L17.2067353,33.775 C17.1738073,33.917 16.7696913,34.285 16.279763,34.435 L15.7838478,34.588 L15.6241971,35.084 C15.285937,36.137 14.5984409,37.19 13.9548488,38.11 C13.8520736,38.212 13.4399751,38.496 13.2194574,38.649 C12.7963829,38.941 12.6038042,39.077 12.4651076,39.234 L12.2166511,39.519 L12.2166511,42 C12.2166511,43.325 13.5347677,43.602 14.1683817,43.735 C14.3709386,43.777 14.5984409,43.825 14.7271593,43.878 L18,46 L2,46 L5.21696289,44.129 Z" id="Path-Copy-2" fill="#FF9D38" fill-rule="nonzero"></path>
                <path d="M48.2169629,44.129 C48.3337075,44.065 48.4933583,43.989 48.6739632,43.903 C49.8104771,43.361 51.225382,42.687 51.225382,41.455 L51.225382,38.81 L50.7055192,38.526 C49.920237,38.097 47.7998753,36.624 47.4236982,34.979 L47.3328968,34.583 L46.9926411,34.362 C46.37599,33.963 46.2602432,33.758 46.2362956,33.789 L46.2362956,31.648 C46.2402869,31.644 46.245276,31.638 46.2522607,31.628 C46.8848768,30.869 47.2341129,29.944 47.2341129,29.027 L47.2341129,28.026 C47.239102,27.821 47.4326785,23 53.2210165,23 C58.864671,23 59.1899595,27.516 59.2079202,28 L59.2079202,29.027 C59.2079202,29.932 59.547178,30.843 60.2057374,31.654 L60.2067353,33.775 C60.1738073,33.917 59.7696913,34.285 59.279763,34.435 L58.7838478,34.588 L58.6241971,35.084 C58.285937,36.137 57.5984409,37.19 56.9548488,38.11 C56.8520736,38.212 56.4399751,38.496 56.2194574,38.649 C55.7963829,38.941 55.6038042,39.077 55.4651076,39.234 L55.2166511,39.519 L55.2166511,42 C55.2166511,43.325 56.5347677,43.602 57.1683817,43.735 C57.3709386,43.777 57.5984409,43.825 57.7271593,43.878 L61,46 L45,46 L48.2169629,44.129 Z" id="Path-Copy-6" fill="#FF9D38" fill-rule="nonzero"></path>
                <path d="M27.0159027,57.2103478 C27.1253508,57.1491304 27.2750234,57.0764348 27.4443405,56.9941739 C28.5098223,56.4757391 29.8362956,55.8310435 29.8362956,54.6526087 L29.8362956,52.1226087 L29.3489242,51.8509565 C28.6127222,51.4406087 26.6248831,50.0316522 26.272217,48.4581739 L26.1870907,48.0793913 L25.868101,47.868 C25.2899906,47.4863478 25.181478,47.2902609 25.1590271,47.319913 L25.1590271,45.272 C25.1627689,45.2681739 25.1674462,45.2624348 25.1739944,45.2528696 C25.767072,44.5268696 26.0944808,43.642087 26.0944808,42.7649565 L26.0944808,41.8074783 C26.0991581,41.6113913 26.2806361,37 31.707203,37 C36.9981291,37 37.303087,41.3196522 37.3199252,41.7826087 L37.3199252,42.7649565 C37.3199252,43.6306087 37.6379794,44.502 38.2553789,45.2777391 L38.2563143,47.3065217 C38.2254443,47.4423478 37.8465856,47.7943478 37.3872778,47.9378261 L36.9223573,48.0841739 L36.7726848,48.5586087 C36.4555659,49.5658261 35.8110384,50.5730435 35.2076707,51.4530435 C35.111319,51.5506087 34.7249766,51.8222609 34.5182413,51.9686087 C34.121609,52.247913 33.9410664,52.378 33.8110384,52.5281739 L33.5781104,52.8007826 L33.5781104,55.173913 C33.5781104,56.4413043 34.8138447,56.7062609 35.4078578,56.8334783 C35.5977549,56.8736522 35.8110384,56.9195652 35.9317119,56.9702609 L39,59 L24,59 L27.0159027,57.2103478 Z" id="Path-Copy-3" fill="#F45259" fill-rule="nonzero"></path>
            </g>
        </g>
    </g>
</svg>