<?xml version="1.0" encoding="UTF-8"?>
<svg width="100px" height="100px" viewBox="0 0 100 100" version="1.1" xmlns="http://www.w3.org/2000/svg" xmlns:xlink="http://www.w3.org/1999/xlink">
    <!-- Generator: Sketch 55.1 (78136) - https://sketchapp.com -->
    <title>icon_blogs</title>
    <desc>Created with Sketch.</desc>
    <g id="🥬-Review" stroke="none" stroke-width="1" fill="none" fill-rule="evenodd">
        <g id="home_iterate" transform="translate(-294.000000, -673.000000)" fill-rule="nonzero">
            <g id="Group-8" transform="translate(294.000000, 673.000000)">
                <path d="M87.9140625,3 L12.0859375,3 C7.62744141,3 4,6.665625 4,11.1710526 L4,24.7894737 L96,24.7894737 L96,11.1710526 C96,6.665625 92.3725586,3 87.9140625,3 Z" id="Path" stroke="#63B1DB" stroke-width="3"></path>
                <path d="M17.4765625,82.3797616 L47.484375,82.3797616 L47.484375,74.7906424 C47.484375,57.4998092 59.731903,42.4859232 76.6035768,39.094485 C77.4093627,38.9435348 78.2200622,39.1424504 78.8412475,39.6552573 C79.4652405,40.1708856 79.828125,40.9383325 79.828125,41.7502181 L79.828125,46.630701 C79.828125,52.9974068 78.1618041,59.2688872 75.0137634,64.7708046 C74.5322571,65.6094942 73.6401367,66.1279442 72.6764222,66.1279442 L70.0920105,66.1279442 L70.8865661,68.5297427 C71.1975098,69.4636579 70.9792175,70.4899771 70.3180237,71.2143963 C65.6019287,76.3953684 59.5816956,79.9271761 52.875,81.711067 L52.875,85.0883978 C52.875,86.5852014 51.6691283,87.797034 50.1796875,87.797034 L17.4765625,87.797034 C15.9871217,87.797034 14.78125,86.5852014 14.78125,85.0883978 C14.78125,83.5915942 15.9871217,82.3797616 17.4765625,82.3797616 Z M63.4569388,63.9843156 C63.1774773,63.177298 63.3186266,62.2875095 63.8293174,61.597061 C64.3421361,60.905923 65.1642065,60.4975859 66.0394737,60.4975859 L70.8108861,60.4975859 C73.0401933,56.2500525 74.2105263,51.5224472 74.2105263,46.7293149 L74.2105263,45.3684211 C61.4035362,49.3000452 52.4210526,60.9735192 52.4210526,74.265857 L52.4210526,75.6315789 C57.1392681,74.1934323 61.400699,71.699955 64.9358141,68.3008247 L63.4569388,63.9843156 Z" id="Combined-Shape" fill="#63B1DB"></path>
                <path d="M4,88.0846176 C4,92.5651534 7.62744141,96.2105263 12.0859375,96.2105263 L87.9140625,96.2105263 C92.3725586,96.2105263 96,92.5651534 96,88.0846176 L96,30.8421053 L4,30.8421053 L4,88.0846176 Z" id="Path" stroke="#63B1DB" stroke-width="3"></path>
                <path d="M17.4716491,19.3421053 C15.9829102,19.3421053 14.7763366,18.122831 14.7763366,16.6184211 C14.7763366,15.1140111 15.9829102,13.8947368 17.4716491,13.8947368 C18.9603881,13.8947368 20.1669616,15.1140111 20.1669616,16.6184211 C20.1669616,18.122831 18.9603881,19.3421053 17.4716491,19.3421053 Z" id="Path" fill="#63B1DB"></path>
                <path d="M28.4325866,19.3421053 C26.9438477,19.3421053 25.7372741,18.122831 25.7372741,16.6184211 C25.7372741,15.1140111 26.9438477,13.8947368 28.4325866,13.8947368 C29.9213256,13.8947368 31.1278991,15.1140111 31.1278991,16.6184211 C31.1278991,18.122831 29.9213256,19.3421053 28.4325866,19.3421053 Z" id="Path" fill="#63B1DB"></path>
                <path d="M39.3935241,19.3421053 C37.9047852,19.3421053 36.6982116,18.122831 36.6982116,16.6184211 C36.6982116,15.1140111 37.9047852,13.8947368 39.3935241,13.8947368 C40.8822631,13.8947368 42.0888366,15.1140111 42.0888366,16.6184211 C42.0888366,18.122831 40.8822631,19.3421053 39.3935241,19.3421053 Z" id="Path" fill="#63B1DB"></path>
                <path d="M82.5234375,19.3421053 L55.5703125,19.3421053 C54.0808717,19.3421053 52.875,18.1235402 52.875,16.6184211 C52.875,15.1133019 54.0808717,13.8947368 55.5703125,13.8947368 L82.5234375,13.8947368 C84.0128783,13.8947368 85.21875,15.1133019 85.21875,16.6184211 C85.21875,18.1235402 84.0128783,19.3421053 82.5234375,19.3421053 Z" id="Path" fill="#63B1DB"></path>
            </g>
        </g>
    </g>
</svg>