<?xml version="1.0" encoding="UTF-8"?>
<svg width="62px" height="62px" viewBox="0 0 62 62" version="1.1" xmlns="http://www.w3.org/2000/svg" xmlns:xlink="http://www.w3.org/1999/xlink">
    <!-- Generator: Sketch 56.2 (81672) - https://sketch.com -->
    <title>kb_faq</title>
    <desc>Created with Sketch.</desc>
    <g id="ðŸ¥-SONiC-and-CCTV" stroke="none" stroke-width="1" fill="none" fill-rule="evenodd">
        <g id="sonic_iterate4" transform="translate(-542.000000, -2404.000000)">
            <g id="faq" transform="translate(542.000000, 2404.000000)">
                <g id="Group-21" transform="translate(1.000000, 3.000000)">
                    <g id="Group-14">
                        <path d="M49.2692308,33.7659514 C55.7375769,33.7659514 61,26.1922485 61,16.8829757 C61,7.57370289 55.7375769,1.13686838e-13 49.2692308,1.13686838e-13 L11.7307692,1.13686838e-13 C5.26242308,1.13686838e-13 0,7.57370289 0,16.8829757 L0,41.4834192 C4.35906659e-15,42.0357039 0.44771525,42.4834192 1,42.4834192 C1.27525718,42.4834192 1.53834294,42.3699593 1.72726699,42.1697738 L9.65833333,33.7659514 L49.2692308,33.7659514 Z" id="Path" fill="#FF9D38" fill-rule="nonzero"></path>
                        <text id="FAQs" font-family="Lato-Bold, Lato" font-size="16" font-weight="bold" fill="#FFFFFF">
                            <tspan x="11.436" y="23">FAQs</tspan>
                        </text>
                    </g>
                    <path d="M55,43 L39,43 C36.243,43 34,45.243 34,48 C34,50.757 36.243,53 39,53 L54.586,53 L59.1464466,57.5604466 C59.3417088,57.7557088 59.6582912,57.7557088 59.8535534,57.5604466 C59.9473216,57.4666784 60,57.3395015 60,57.2068932 L60,48 C60,45.243 57.757,43 55,43 Z" id="Shape" fill="#6AB7E7" fill-rule="nonzero"></path>
                </g>
            </g>
        </g>
    </g>
</svg>