<?xml version="1.0" encoding="UTF-8"?>
<svg width="62px" height="62px" viewBox="0 0 62 62" version="1.1" xmlns="http://www.w3.org/2000/svg" xmlns:xlink="http://www.w3.org/1999/xlink">
    <!-- Generator: Sketch 56.2 (81672) - https://sketch.com -->
    <title>kb_wp</title>
    <desc>Created with Sketch.</desc>
    <g id="ðŸ¥-SONiC-and-CCTV" stroke="none" stroke-width="1" fill="none" fill-rule="evenodd">
        <g id="sonic_iterate4" transform="translate(-817.000000, -2404.000000)" fill-rule="nonzero">
            <g id="wp" transform="translate(817.000000, 2404.000000)">
                <path d="M5,4 L53,4 C55.209139,4 57,5.790861 57,8 L57,56 C57,58.209139 55.209139,60 53,60 L5,60 C2.790861,60 1,58.209139 1,56 L1,8 C1,5.790861 2.790861,4 5,4 Z" id="Path" fill="#ECECEC"></path>
                <g id="Group-15" transform="translate(24.000000, 1.000000)">
                    <path d="M37.4027689,9.46941497 L28.1889458,0.255591837 C27.8481567,-0.0851972789 27.2956669,-0.0851972789 26.9548778,0.255591837 L2.55912269,24.6513469 C2.39542201,24.8149388 2.30355806,25.0368707 2.30355806,25.2682721 C2.30355806,25.4996735 2.39542201,25.7216054 2.55912269,25.8851973 L11.7729458,35.0990204 C11.9365377,35.2627211 12.1584696,35.354585 12.389871,35.354585 C12.6212723,35.354585 12.8432043,35.2627211 13.0067962,35.0990204 L37.4024424,10.7032653 C37.7435581,10.3626939 37.7435581,9.81020408 37.4027689,9.46941497 Z" id="Path" fill="#FF9D38"></path>
                    <path d="M2.32042881,25.0972789 L0.0169730266,36.6145578 C-0.0402786741,36.9005986 0.0492995572,37.1964354 0.255558061,37.4026939 C0.42078255,37.5679184 0.643476428,37.6582585 0.872483231,37.6582585 C0.929408401,37.6582585 0.986660101,37.6527075 1.04358527,37.6412789 L12.5608642,35.3378231 C12.8764016,35.2748027 13.1316397,35.042966 13.2248098,34.7350476 L2.92298663,24.4332245 C2.61528595,24.5265034 2.3836669,24.7817415 2.32042881,25.0972789 Z" id="Path" fill="#FFFFFF"></path>
                    <path d="M0.0213267681,36.5932245 C-0.0177480619,36.7888163 0.000102278265,36.994966 0.0901158837,37.1729252 C0.246415203,37.4824762 0.553245135,37.6580408 0.872700918,37.6580408 C0.929626088,37.6580408 0.986877788,37.6524898 1.04380296,37.6410612 L6.17392541,36.6149932 L1.0044016,31.6783946 L0.0213267681,36.5932245 Z" id="Path" fill="#60718D"></path>
                    <path d="M28.1889458,0.255591837 C28.025354,0.0918911565 27.803422,2.72108843e-05 27.5720206,2.72108843e-05 C27.3406193,2.72108843e-05 27.1186873,0.0918911565 26.9550955,0.255591837 L20.373871,6.83692517 L30.8216533,17.2847075 L37.4029866,10.703483 C37.5666873,10.5398912 37.6585513,10.3179592 37.6585513,10.0865578 C37.6585513,9.85515646 37.5666873,9.63322449 37.4029866,9.46963265 L28.1889458,0.255591837 Z" id="Path" fill="#6AB7E7"></path>
                </g>
            </g>
        </g>
    </g>
</svg>