<?xml version="1.0" encoding="UTF-8"?>
<svg width="62px" height="62px" viewBox="0 0 62 62" version="1.1" xmlns="http://www.w3.org/2000/svg" xmlns:xlink="http://www.w3.org/1999/xlink">
    <!-- Generator: Sketch 56.2 (81672) - https://sketch.com -->
    <title>kb_wiki</title>
    <desc>Created with Sketch.</desc>
    <g id="ðŸ¥-SONiC-and-CCTV" stroke="none" stroke-width="1" fill="none" fill-rule="evenodd">
        <g id="sonic_iterate4" transform="translate(-404.000000, -2404.000000)">
            <g id="wiki" transform="translate(404.000000, 2404.000000)">
                <rect id="Rectangle" fill="#ECECEC" x="1" y="4" width="60" height="52" rx="4"></rect>
                <path d="M46,4 L57,4 C59.209139,4 61,5.790861 61,8 L61,14 L46,14 L46,4 Z" id="Rectangle" fill="#6AB7E7"></path>
                <path d="M1,4 L39,4 C41.209139,4 43,5.790861 43,8 L43,14 L1,14 L1,4 Z" id="Rectangle" fill="#6AB7E7" transform="translate(22.000000, 9.000000) scale(-1, 1) translate(-22.000000, -9.000000) "></path>
                <rect id="Rectangle-Copy-26" fill="#FFFFFF" transform="translate(11.000000, 9.000000) rotate(-90.000000) translate(-11.000000, -9.000000) " x="10" y="5" width="2" height="8" rx="1"></rect>
                <rect id="Rectangle-Copy-27" fill="#FFFFFF" transform="translate(23.000000, 9.000000) rotate(-90.000000) translate(-23.000000, -9.000000) " x="22" y="5" width="2" height="8" rx="1"></rect>
                <rect id="Rectangle-Copy-28" fill="#FFFFFF" transform="translate(35.000000, 9.000000) rotate(-90.000000) translate(-35.000000, -9.000000) " x="34" y="5" width="2" height="8" rx="1"></rect>
                <text id="W" font-family="BigCaslon-Medium, Big Caslon" font-size="29" font-weight="400" fill="#60718D">
                    <tspan x="17" y="46">W</tspan>
                </text>
            </g>
        </g>
    </g>
</svg>